PathFileType	4	(X/Y/Z)	T1_P2_NoVision_Movement_3_0-732.trc
DataRate	CameraRate	NumFrames	NumMarkers	Units	OrigDataRate	OrigDataStartFrame	OrigNumFrames
60	60	4	27	m	60	640	732
Frame#	Time	RHip			RKnee			RAnkle			RBigToe			RSmallToe			RHeel			LHip			LKnee			LAnkle			LBigToe			LSmallToe			LHeel			Neck			Head			Nose			RShoulder			RElbow			RWrist			RThumb			RIndex			RPinky			LShoulder			LElbow			LWrist			LThumb			LIndex			LPinky		
		X1	Y1	Z1	X2	Y2	Z2	X3	Y3	Z3	X4	Y4	Z4	X5	Y5	Z5	X6	Y6	Z6	X7	Y7	Z7	X8	Y8	Z8	X9	Y9	Z9	X10	Y10	Z10	X11	Y11	Z11	X12	Y12	Z12	X13	Y13	Z13	X14	Y14	Z14	X15	Y15	Z15	X16	Y16	Z16	X17	Y17	Z17	X18	Y18	Z18	X19	Y19	Z19	X20	Y20	Z20	X21	Y21	Z21	X22	Y22	Z22	X23	Y23	Z23	X24	Y24	Z24	X25	Y25	Z25	X26	Y26	Z26	X27	Y27	Z27
641	10.683333333333334	460.42792475566137	3644.606416311649	558.6546421722934	847.0645281564869	3675.9476146459574	555.3874521547979	1231.9596182633213	3726.790929379388	618.2007020233833	1316.5170152329938	3627.8766881439683	598.4445270102375	1283.5651612621432	3612.328999800874	524.4366516875987	1259.9005172199052	3714.8922576407294	632.3388458177044	464.9361623175442	3513.945202746058	744.8312633997436	874.9856766662666	3547.5002358969464	749.8706475744535	1225.7747804122987	3595.191494361648	733.2099236066032	1325.7960301162454	3561.6608528834536	681.5880291847262	1280.406268978831	3473.132334396098	712.0997906163667	1268.4008299543611	3621.2662679649034	728.397733216069	-122.19011556669687	3529.6884224435908	648.9998922663492	-381.80852689272666	3486.5442648197923	625.3364613667713	-236.54322429823588	3432.27178214498	586.0037486064302	-45.03332417455357	3643.6817380921534	546.4443116513546	205.08556562425713	3761.6076156702616	501.2056134135464	439.99234094508313	3660.413690226818	417.1642222771142	563.5490548315416	3567.0861661479717	425.57866530093884	583.0888333368232	3560.232481842656	394.8751816105274	581.8530064648072	3662.007419397293	401.2211838429252	-22.286024372318725	3505.304846104397	842.5293650813201	246.29511097804294	3444.256075791167	851.885162971681	491.53575263757716	3425.6973808260436	842.6130479367812	595.5647879451474	3431.5898468893724	809.6085973047227	609.8367236656461	3419.6718420846646	822.8385276337578	598.999344896339	3352.020990600454	825.6576267619403
642	10.7	457.39289639067687	3639.119024747016	559.3009647641493	848.9755235123653	3679.8234074109223	557.3725691913238	1233.4054450035806	3726.223064681071	619.7354350801877	1315.8077265494155	3622.002992367823	597.3849123172505	1284.290207547574	3609.008545728726	525.5599547756815	1261.7255164260853	3716.0405505913745	632.8638455992846	463.91155150890694	3514.8507103568104	746.0037181211824	876.1211112273444	3547.7635361932466	750.0883540796679	1224.9535113065908	3594.252291673931	732.9698591171226	1325.8764628846986	3561.87442443534	681.6794138843435	1280.907264426871	3475.216417968506	714.0095224088946	1266.9092641681495	3620.244975884665	727.7684034702371	-122.331517316966	3529.6598498448684	649.000260971159	-381.71961144920596	3484.4764476010587	624.7722298674585	-237.95697416007403	3431.541883986025	585.7144152076397	-45.01405962063222	3643.651051120519	546.4529643579169	205.52422586064438	3760.861307679598	500.746683632525	440.05120654064876	3659.523508983436	418.517382966785	563.6123035524422	3566.6048238741823	425.4411628204994	582.5776474653541	3553.9886919742958	393.51178267963536	582.9250703763456	3660.563089908824	401.105542352798	-21.726383620355993	3497.0963294930907	839.7629457112067	246.23960977379136	3443.9187029238847	852.332548997179	491.5785328649371	3425.364586056311	843.0707058496708	596.8137227724274	3434.8752776005576	811.9617899993809	610.4240118136055	3421.583522238463	824.4262991437519	598.7083631576992	3349.20048080745	826.5796222094796
643	10.716666666666669	454.6481726382307	3630.616709605614	557.9537224486008	851.9839174244701	3683.2974290273655	558.7608384874954	1236.779164849369	3726.64937507543	621.3808142977346	1318.0401565645861	3620.1004040347602	599.2780728233733	1287.5509014002168	3610.007448333132	529.2477519463276	1265.2209459188405	3716.1513314048075	633.0508952185268	463.22203349177516	3515.0561112077453	746.2141516828008	877.3944730365375	3548.611266619941	750.5075480067011	1223.6586500746696	3593.488984434144	732.8053972993596	1325.8024297610352	3561.514223401061	682.1693365871363	1281.5918812432112	3477.448114671302	716.0472555795972	1265.8389900329578	3619.3889425537072	727.9028874631896	-122.79126394922767	3529.7515851148773	649.0122950659345	-381.81259065410586	3484.399269796062	624.751713629258	-238.60545736284672	3432.0113872436023	586.456619546386	-44.52239649433345	3644.0337879138046	546.6207187067047	205.80011498682697	3761.1935904079915	500.97281075741205	440.100409282476	3658.815824760697	419.70444095041245	565.4001745391254	3567.2746509935396	425.9908809551448	583.2947304934372	3549.8078843850476	392.6318715459204	584.3093456083468	3659.7856920679897	400.9600986476574	-21.51398324588141	3490.9815201059364	837.7353975944746	246.13720776491022	3443.7574258138607	852.2981328996221	491.6904960819342	3425.3564897798733	843.1213008494622	598.3091599586324	3436.771577009846	813.2349173237702	610.5524643826476	3421.826179016076	824.619191323734	598.9548500413214	3349.106539423891	828.719373178642
644	10.733333333333333	452.4337875107154	3621.101457099712	554.0185447172615	853.4841563811624	3684.6818125653526	558.2558617526562	1239.6782079032077	3725.949045830943	621.8277598733172	1322.0627836659833	3622.210670081383	602.9519441567542	1291.1300312210803	3613.199924972585	532.8028074305026	1268.9961884393902	3716.160916903327	632.9778476958277	462.3437596246808	3514.632904899431	745.9261466654494	878.2648442766279	3550.085731892848	751.1399253742452	1222.4995593835417	3593.289842205584	732.5444468730009	1325.5438702825295	3560.6658157226575	682.7969741744388	1281.955386632885	3478.6146361356978	717.1192278466084	1266.0106590634437	3619.356406142374	728.221745625597	-123.64061997485622	3530.1022776357768	649.124884558692	-381.9061675879664	3484.8122515498226	624.8672186800629	-237.89666966219647	3432.8636214216617	588.2012385674865	-43.30206997713465	3645.0585072050167	547.0383707250986	206.54146455223045	3763.4904723305362	502.65060621576924	440.1047158147877	3658.696571053006	420.31314997096985	568.1961353115137	3568.7294363011124	427.19480238915503	584.8539856313695	3548.768292720481	392.4820714948355	585.0878650207698	3659.780784286986	400.75319964707023	-21.860438563752624	3489.0542391170093	837.22042837315	246.0066187154442	3443.6075178825263	852.1700170683525	491.66372368548036	3425.256965083947	842.9561072983473	599.0457893627464	3435.3025400404995	812.997010684862	610.4192903139915	3421.082582901464	824.2287467156264	599.5555590606483	3351.075905582291	831.2619343049129
